<svg height="512pt" viewBox="0 0 512 512" width="512pt" xmlns="http://www.w3.org/2000/svg"><path d="m512 332h-31v-30h-45c-19.554688 0-36.226562 12.539062-42.421875 30h-2.578125c-33.085938 0-60 26.914062-60 60s26.914062 60 60 60h45c8.269531 0 15 6.730469 15 15s-6.730469 15-15 15h-136.507812c-5.714844-28.042969-27.128907-50.445312-54.632813-57.59375l10.394531-41.566406c79.199219-25.175782 136.746094-99.410156 136.746094-186.839844 0-108.074219-87.925781-196-196-196s-196 87.925781-196 196c0 87.429688 57.546875 161.664062 136.746094 186.839844l10.394531 41.566406c-32.257813 8.382812-56.140625 37.75-56.140625 72.59375v15h345c24.8125 0 45-20.1875 45-45s-20.1875-45-45-45h-45c-16.542969 0-30-13.457031-30-30s13.457031-30 30-30h2.578125c6.195313 17.460938 22.867187 30 42.421875 30h45v-30h31zm-301 29.316406v-91.847656c19.34375 19.710938 46.167969 31.53125 75 31.53125 16.78125 0 32.65625-3.964844 46.738281-10.996094-27.289062 39.574219-71.296875 66.769532-121.738281 71.3125zm-105-240.316406c27.15625 0 51.816406 14.660156 65.019531 37.589844-7.988281 5.355468-14.171875 13.195312-17.441406 22.410156h-121.070313c6.96875-34.191406 37.273438-60 73.492188-60zm180 150c-27.15625 0-51.816406-14.660156-65.019531-37.589844 7.988281-5.355468 14.171875-13.195312 17.441406-22.410156h121.070313c-6.96875 34.191406-37.273438 60-73.492188 60zm-75-75c0 8.269531-6.730469 15-15 15s-15-6.730469-15-15 6.730469-15 15-15 15 6.730469 15 15zm22.410156-24.980469c-5.355468-7.988281-13.195312-14.171875-22.410156-17.441406v-121.070313c34.191406 6.96875 60 37.273438 60 73.492188 0 27.15625-14.660156 51.816406-37.589844 65.019531zm-74.820312 49.960938c5.355468 7.988281 13.195312 14.171875 22.410156 17.441406v121.070313c-34.191406-6.96875-60-37.273438-60-73.492188 0-27.15625 14.660156-51.816406 37.589844-65.019531zm202.726562-39.980469h-91.847656c19.710938-19.34375 31.53125-46.167969 31.53125-75 0-16.78125-3.964844-32.65625-10.996094-46.738281 39.574219 27.289062 66.769532 71.296875 71.3125 121.738281zm-180.316406-150.316406v91.847656c-19.34375-19.710938-46.167969-31.53125-75-31.53125-16.78125 0-32.65625 3.964844-46.738281 10.996094 27.289062-39.574219 71.296875-66.769532 121.738281-71.3125zm-150.316406 180.316406h91.847656c-19.710938 19.34375-31.53125 46.167969-31.53125 75 0 16.78125 3.964844 32.65625 10.996094 46.738281-39.574219-27.289062-66.769532-71.296875-71.3125-121.738281zm165.316406 181c8.984375 0 17.820312-.621094 26.488281-1.796875l-7.949219 31.796875h-37.078124l-7.949219-31.796875c8.667969 1.175781 17.503906 1.796875 26.488281 1.796875zm-72.429688 90c6.191407-17.460938 22.875-30 42.429688-30h60c19.554688 0 36.238281 12.539062 42.429688 30zm327.429688-120h-15c-8.269531 0-15-6.730469-15-15s6.730469-15 15-15h15zm0 0"/></svg>